# xmcd
#
# Track frame offsets:
#	150
#	18462
#	36305
#
# Disc length: 820 seconds
#
# Revision: 0
# Processed by: cddbd v1.5PL3 Copyright (c) Steve Scherf et al.
# Submitted via: audiograbber 1.83.01
#
DISCID=1e033203
DTITLE=Cath Coffey - Walk With Me (Maxi)
DYEAR=1999
DGENRE=Trip hop
TTITLE0=Walk With Me (Video Edit)
TTITLE1=Walk With Me (Score Version)
TTITLE2=Walk With Me (Original Version)
EXTD=Freefly
EXTT0=
EXTT1=
EXTT2=
PLAYORDER=
